<?xml version="1.0" encoding="utf-8"?>
<!-- Generator: Adobe Illustrator 11.0, SVG Export Plug-In  -->
<!DOCTYPE svg PUBLIC "-//W3C//DTD SVG 1.0//EN"    "http://www.w3.org/TR/2001/REC-SVG-20010904/DTD/svg10.dtd" [
	<!ENTITY ns_flows "http://ns.adobe.com/Flows/1.0/">
	<!ENTITY ns_svg "http://www.w3.org/2000/svg">
	<!ENTITY ns_xlink "http://www.w3.org/1999/xlink">
]>
<svg  xmlns="&ns_svg;" xmlns:xlink="&ns_xlink;" xmlns:a="http://ns.adobe.com/AdobeSVGViewerExtensions/3.0/"
	 width="362" height="92" viewBox="106.138 315.335 362 92" xml:space="preserve">
	<defs>
	</defs>
	<g>
		<rect x="207.697" y="328.899" fill="#050304" width="12.135" height="39.034"/> 
		<rect fill="none" width="595.277" height="841.891"/> 
		<path fill="#050304" d="M225.04,337.697h8.747v3.438c0,0,0.91-4.349,10.466-4.349c9.557,0,11.124,7.736,11.124,7.736v23.663
			h-10.264v-20.579c0,0-0.556-2.226-4.247-2.226c-3.691,0-4.399,2.022-4.399,2.022v20.781H225.04V337.697z"/>
		<path fill="#050304" d="M258.208,343.917l13.803-15.066h1.871v8.747h7.837v8.342h-7.584V356c0,0,0.152,2.681,2.123,2.681h5.461
			v9.506h-11.022c0,0-7.231-0.606-7.231-7.989v-14.662h-5.258V343.917z"/>
		<path fill="#050304" d="M305.248,357.921c-1.041,1.409-2.709,2.326-4.596,2.326c-3.108,0-5.631-2.476-5.719-5.562h9.816h1.619
			h10.375c0.098-0.722,0.166-1.451,0.166-2.2c0-8.937-7.244-16.179-16.18-16.179c-8.937,0-16.181,7.242-16.181,16.179
			s7.244,16.181,16.181,16.181c7.025,0,12.986-4.486,15.223-10.745H305.248L305.248,357.921z M300.828,344.257
			c2.879,0,5.248,2.174,5.563,4.969h-11.124C295.58,346.431,297.949,344.257,300.828,344.257"/>
		<path fill="#050304" d="M321.798,337.866h6.875l1.182,2.966c0,0,3.338-2.966,6.674-2.966h5.156v9.337h-6.877
			c0,0-3.064,0-3.064,2.629v18.354h-9.945V337.866L321.798,337.866z"/>
		<polygon fill="#050304" points="342.585,367.549 348.156,328.85 359.214,328.85 368.382,350 377.146,328.85 388.066,328.85 
			394,367.528 383.08,367.528 379.978,345.551 368.292,367.059 356.382,345.687 353.281,367.528 "/>
		<path fill="#050304" d="M421.708,338.271v2.236c-2.604-2.027-5.871-3.248-9.428-3.248c-8.488,0-15.371,6.883-15.371,15.37
			c0,8.488,6.883,15.371,15.371,15.371c3.557,0,6.822-1.221,9.428-3.248V368h8.563v-29.729H421.708z M414.089,359.844
			c-3.76,0-6.809-3.05-6.809-6.812c0-3.759,3.049-6.808,6.809-6.808c3.762,0,6.811,3.049,6.811,6.808
			C420.898,356.794,417.851,359.844,414.089,359.844"/>
		<path fill="#050304" d="M457.992,355.192c-0.959,2.713-3.457,4.649-6.396,4.649c-3.766,0-6.818-3.178-6.818-7.098
			c0-3.921,3.055-7.1,6.818-7.1c2.73,0,5.08,1.674,6.17,4.086h9.783c-1.369-7.625-8.021-13.416-16.043-13.416
			c-9.01,0-16.313,7.305-16.313,16.313c0,9.013,7.303,16.315,16.313,16.315c8.137,0,14.863-5.962,16.094-13.752h-9.607V355.192z"/>
		<path fill="#1594CD" d="M141.416,367.315c0,0,1.618,20.528,21.438,20.629c11.73,0,19.012-6.775,19.012-6.775l17.394,19.416
			c0,0-7.888,5.771-23.663,5.771C159.822,406.355,137.371,392.597,141.416,367.315"/>
		<path fill="#F49C0F" d="M164.273,357.37c0,0-18.607-8.819-28.565,8.319c-5.841,10.172-3.591,19.859-3.591,19.859l-25.499,5.415
			c0,0-1.075-9.713,6.78-23.393C121.253,353.891,144.364,341.273,164.273,357.37"/>
		<path fill="#179980" d="M163.686,381.197c0,0,15.67-13.359,4.117-29.465c-6.886-9.497-15.389-11.084-15.389-11.084l7.912-24.805
			c0,0,6.472,2.157,14.903,14.767C183.996,343.725,186.527,369.633,163.686,381.197"/>
		<rect x="208.328" y="383.224" width="1.344" height="10.155"/> 
		<path d="M211.879,393.379v-7.358h1.125v1.046c0.539-0.801,1.317-1.202,2.335-1.202c0.442,0,0.849,0.08,1.22,0.239
			s0.648,0.368,0.833,0.626s0.313,0.564,0.387,0.92c0.046,0.23,0.069,0.635,0.069,1.211v4.519h-1.25v-4.472
			c0-0.508-0.048-0.887-0.145-1.139c-0.097-0.252-0.268-0.452-0.514-0.603c-0.246-0.149-0.534-0.225-0.865-0.225
			c-0.529,0-0.985,0.168-1.369,0.505c-0.384,0.337-0.576,0.976-0.576,1.917v4.015L211.879,393.379L211.879,393.379z"/>
		<path d="M219.771,393.379v-7.358h1.125v1.046c0.539-0.801,1.317-1.202,2.335-1.202c0.442,0,0.849,0.08,1.219,0.239
			c0.371,0.159,0.648,0.368,0.833,0.626c0.184,0.258,0.313,0.564,0.387,0.92c0.046,0.23,0.069,0.635,0.069,1.211v4.519h-1.25v-4.472
			c0-0.508-0.048-0.887-0.145-1.139c-0.097-0.251-0.268-0.452-0.514-0.603c-0.246-0.149-0.535-0.225-0.865-0.225
			c-0.529,0-0.985,0.168-1.369,0.505c-0.384,0.337-0.576,0.976-0.576,1.917v4.015L219.771,393.379L219.771,393.379z"/>
		<path d="M227.193,389.7c0-1.359,0.378-2.366,1.136-3.021c0.632-0.543,1.403-0.815,2.313-0.815c1.011,0,1.837,0.331,2.479,0.992
			s0.963,1.574,0.963,2.74c0,0.943-0.142,1.688-0.426,2.229c-0.284,0.542-0.697,0.962-1.24,1.261s-1.135,0.449-1.776,0.449
			c-1.03,0-1.862-0.329-2.497-0.988C227.51,391.889,227.193,390.939,227.193,389.7z M228.475,389.696
			c0,0.938,0.205,1.641,0.616,2.108c0.411,0.467,0.928,0.699,1.551,0.699c0.619,0,1.133-0.233,1.544-0.704
			c0.411-0.469,0.616-1.185,0.616-2.146c0-0.906-0.207-1.593-0.62-2.06c-0.413-0.468-0.927-0.7-1.541-0.7
			c-0.624,0-1.14,0.231-1.551,0.696C228.68,388.058,228.475,388.758,228.475,389.696z"/>
		<path d="M237.563,393.379l-2.774-7.358h1.337l1.572,4.407c0.172,0.476,0.33,0.971,0.474,1.482
			c0.111-0.388,0.266-0.854,0.464-1.399l1.637-4.49h1.281l-2.782,7.358H237.563L237.563,393.379z"/>
		<path d="M247.461,392.458c-0.461,0.396-0.906,0.673-1.335,0.835c-0.428,0.162-0.888,0.243-1.378,0.243
			c-0.811,0-1.434-0.197-1.869-0.591c-0.435-0.395-0.653-0.898-0.653-1.511c0-0.36,0.082-0.688,0.247-0.986s0.379-0.536,0.646-0.716
			c0.267-0.18,0.566-0.315,0.899-0.408c0.246-0.063,0.616-0.126,1.112-0.187c1.009-0.12,1.753-0.264,2.23-0.43
			c0.004-0.17,0.007-0.277,0.007-0.323c0-0.506-0.118-0.861-0.354-1.068c-0.319-0.28-0.794-0.42-1.424-0.42
			c-0.589,0-1.022,0.104-1.303,0.31c-0.28,0.207-0.488,0.572-0.622,1.098l-1.219-0.173c0.111-0.521,0.293-0.942,0.548-1.265
			c0.254-0.321,0.622-0.568,1.103-0.741c0.48-0.173,1.038-0.26,1.671-0.26c0.628,0,1.139,0.074,1.533,0.222
			c0.393,0.148,0.682,0.334,0.867,0.559c0.185,0.224,0.314,0.507,0.388,0.849c0.042,0.212,0.063,0.595,0.063,1.146v1.653
			c0,1.153,0.025,1.887,0.076,2.195c0.05,0.311,0.15,0.608,0.299,0.893h-1.297C247.574,393.117,247.496,392.811,247.461,392.458z
			 M247.352,389.692c-0.454,0.184-1.134,0.339-2.041,0.467c-0.514,0.074-0.877,0.156-1.09,0.248
			c-0.213,0.092-0.377,0.226-0.492,0.402c-0.116,0.176-0.174,0.372-0.174,0.587c0,0.33,0.126,0.604,0.379,0.825
			c0.253,0.22,0.623,0.33,1.11,0.33c0.482,0,0.912-0.104,1.287-0.313s0.652-0.494,0.828-0.856c0.135-0.278,0.202-0.69,0.202-1.236
			L247.352,389.692z"/>
		<path d="M253.258,392.262l0.172,1.102c-0.351,0.073-0.665,0.11-0.941,0.11c-0.452,0-0.803-0.072-1.052-0.216
			c-0.249-0.143-0.424-0.33-0.526-0.563s-0.152-0.724-0.152-1.472v-4.233h-0.922v-0.969h0.922v-1.822l1.25-0.748v2.57h1.25v0.969
			h-1.25v4.309c0,0.356,0.022,0.585,0.065,0.688c0.043,0.102,0.115,0.183,0.214,0.243c0.099,0.06,0.24,0.09,0.425,0.09
			C252.851,392.317,253.033,392.298,253.258,392.262z"/>
		<path d="M254.482,384.646v-1.422h1.25v1.422H254.482z M254.482,393.379v-7.358h1.25v7.358H254.482z"/>
		<path d="M259.643,393.379l-2.774-7.358h1.337l1.573,4.407c0.171,0.476,0.329,0.971,0.473,1.482
			c0.111-0.388,0.266-0.854,0.464-1.399l1.637-4.49h1.282l-2.782,7.358H259.643L259.643,393.379z"/>
		<path d="M269.762,390.989l1.285,0.172c-0.203,0.752-0.58,1.336-1.129,1.752c-0.55,0.416-1.252,0.623-2.106,0.623
			c-1.076,0-1.929-0.331-2.559-0.992c-0.631-0.661-0.946-1.588-0.946-2.781c0-1.235,0.319-2.193,0.956-2.875
			c0.638-0.683,1.464-1.023,2.48-1.023c0.984,0,1.787,0.334,2.411,1.003c0.623,0.668,0.935,1.609,0.935,2.821
			c0,0.074-0.002,0.185-0.007,0.332h-5.493c0.046,0.803,0.275,1.418,0.688,1.845c0.413,0.427,0.926,0.64,1.542,0.64
			c0.458,0,0.85-0.119,1.174-0.36C269.317,391.903,269.572,391.518,269.762,390.989z M265.651,388.989h4.125
			c-0.056-0.613-0.213-1.073-0.473-1.38c-0.398-0.477-0.916-0.714-1.551-0.714c-0.575,0-1.059,0.189-1.451,0.569
			C265.909,387.846,265.692,388.354,265.651,388.989z"/>
		<path d="M282.376,392.171c-0.412,0.455-0.861,0.796-1.347,1.023c-0.485,0.227-1.011,0.341-1.575,0.341
			c-1.041,0-1.867-0.35-2.477-1.05c-0.495-0.571-0.743-1.209-0.743-1.914c0-0.626,0.202-1.191,0.606-1.695
			c0.404-0.504,1.008-0.947,1.812-1.33c-0.461-0.525-0.768-0.952-0.922-1.28s-0.23-0.646-0.23-0.949
			c0-0.609,0.239-1.139,0.718-1.589s1.081-0.675,1.807-0.675c0.694,0,1.262,0.213,1.703,0.638s0.663,0.936,0.663,1.531
			c0,0.966-0.64,1.79-1.919,2.474l1.838,2.308c0.202-0.405,0.359-0.877,0.472-1.414l1.297,0.277
			c-0.22,0.887-0.517,1.615-0.892,2.188c0.464,0.617,0.991,1.137,1.58,1.557l-0.844,0.989
			C283.423,393.277,282.907,392.802,282.376,392.171z M281.58,391.2l-2.276-2.841c-0.677,0.403-1.134,0.777-1.37,1.122
			c-0.237,0.345-0.355,0.687-0.355,1.023c0,0.412,0.164,0.842,0.492,1.285c0.327,0.445,0.791,0.667,1.392,0.667
			c0.374,0,0.76-0.117,1.159-0.351S281.34,391.571,281.58,391.2z M279.831,386.889c0.537-0.317,0.884-0.597,1.042-0.836
			s0.237-0.505,0.237-0.796c0-0.346-0.11-0.628-0.329-0.847c-0.219-0.219-0.493-0.328-0.821-0.328c-0.338,0-0.618,0.108-0.842,0.325
			c-0.224,0.216-0.336,0.481-0.336,0.794c0,0.157,0.041,0.321,0.123,0.494c0.081,0.173,0.204,0.356,0.367,0.549L279.831,386.889z"/>
		<path d="M297.375,389.816l1.343,0.339c-0.281,1.104-0.789,1.946-1.521,2.526c-0.732,0.58-1.628,0.869-2.686,0.869
			c-1.095,0-1.986-0.223-2.672-0.668c-0.687-0.445-1.209-1.091-1.567-1.936s-0.537-1.752-0.537-2.722
			c0-1.059,0.202-1.979,0.607-2.768c0.404-0.787,0.979-1.385,1.726-1.793c0.747-0.409,1.568-0.613,2.465-0.613
			c1.017,0,1.872,0.26,2.565,0.777c0.693,0.519,1.176,1.246,1.448,2.185l-1.327,0.312c-0.236-0.738-0.577-1.275-1.025-1.611
			c-0.448-0.336-1.011-0.505-1.689-0.505c-0.78,0-1.433,0.188-1.957,0.562c-0.524,0.373-0.892,0.875-1.104,1.504
			c-0.212,0.629-0.318,1.278-0.318,1.946c0,0.861,0.125,1.614,0.377,2.258c0.252,0.643,0.644,1.124,1.175,1.441
			c0.531,0.318,1.106,0.478,1.725,0.478c0.753,0,1.391-0.217,1.913-0.65C296.838,391.314,297.19,390.668,297.375,389.816z"/>
		<path d="M300.201,393.379v-7.358h1.125v1.118c0.285-0.52,0.549-0.861,0.789-1.026c0.242-0.165,0.506-0.248,0.797-0.248
			c0.418,0,0.842,0.131,1.273,0.393l-0.441,1.149c-0.301-0.174-0.602-0.261-0.902-0.261c-0.268,0-0.51,0.082-0.725,0.246
			c-0.213,0.164-0.367,0.392-0.459,0.682c-0.139,0.443-0.207,0.928-0.207,1.455v3.852L300.201,393.379L300.201,393.379z"/>
		<path d="M309.974,390.989l1.285,0.172c-0.203,0.752-0.58,1.336-1.129,1.752c-0.551,0.416-1.252,0.623-2.105,0.623
			c-1.076,0-1.93-0.331-2.561-0.992c-0.629-0.661-0.945-1.588-0.945-2.781c0-1.235,0.318-2.193,0.957-2.875
			c0.637-0.683,1.465-1.023,2.479-1.023c0.984,0,1.787,0.334,2.41,1.003c0.625,0.668,0.936,1.609,0.936,2.821
			c0,0.074-0.002,0.185-0.006,0.332H305.8c0.047,0.803,0.275,1.418,0.689,1.845c0.412,0.427,0.926,0.64,1.541,0.64
			c0.459,0,0.85-0.119,1.174-0.36S309.785,391.518,309.974,390.989z M305.863,388.989h4.125c-0.057-0.613-0.213-1.073-0.473-1.38
			c-0.398-0.477-0.916-0.714-1.553-0.714c-0.574,0-1.059,0.189-1.449,0.569C306.121,387.846,305.904,388.354,305.863,388.989z"/>
		<path d="M317.646,392.458c-0.463,0.396-0.906,0.673-1.334,0.835c-0.43,0.162-0.889,0.243-1.379,0.243
			c-0.811,0-1.434-0.197-1.867-0.591c-0.438-0.395-0.654-0.898-0.654-1.511c0-0.36,0.082-0.688,0.248-0.986
			c0.164-0.297,0.379-0.536,0.645-0.716c0.268-0.18,0.566-0.315,0.9-0.408c0.246-0.063,0.615-0.126,1.111-0.187
			c1.01-0.12,1.754-0.264,2.229-0.43c0.004-0.17,0.008-0.277,0.008-0.323c0-0.506-0.119-0.861-0.354-1.068
			c-0.32-0.28-0.795-0.42-1.424-0.42c-0.59,0-1.023,0.104-1.305,0.31c-0.279,0.207-0.486,0.572-0.621,1.098l-1.219-0.173
			c0.109-0.521,0.293-0.942,0.547-1.265c0.254-0.321,0.621-0.568,1.104-0.741c0.48-0.173,1.039-0.26,1.672-0.26
			c0.629,0,1.139,0.074,1.533,0.222c0.393,0.148,0.682,0.334,0.865,0.559c0.186,0.224,0.314,0.507,0.389,0.849
			c0.043,0.212,0.063,0.595,0.063,1.146v1.653c0,1.153,0.025,1.887,0.076,2.195c0.051,0.311,0.15,0.608,0.299,0.893h-1.297
			C317.757,393.117,317.679,392.811,317.646,392.458z M317.537,389.692c-0.455,0.184-1.135,0.339-2.041,0.467
			c-0.514,0.074-0.877,0.156-1.09,0.248s-0.377,0.226-0.492,0.402c-0.117,0.176-0.174,0.372-0.174,0.587
			c0,0.33,0.125,0.604,0.379,0.825c0.252,0.22,0.623,0.33,1.109,0.33c0.482,0,0.91-0.104,1.287-0.313
			c0.375-0.209,0.65-0.494,0.826-0.856c0.135-0.278,0.203-0.69,0.203-1.236L317.537,389.692z"/>
		<path d="M323.443,392.262l0.172,1.102c-0.352,0.073-0.664,0.11-0.941,0.11c-0.451,0-0.803-0.072-1.051-0.216
			c-0.25-0.143-0.426-0.33-0.527-0.563c-0.1-0.233-0.15-0.724-0.15-1.472v-4.233h-0.922v-0.969h0.922v-1.822l1.25-0.748v2.57h1.25
			v0.969h-1.25v4.309c0,0.356,0.02,0.585,0.064,0.688c0.043,0.102,0.115,0.183,0.213,0.243c0.102,0.06,0.242,0.09,0.426,0.09
			C323.037,392.317,323.218,392.298,323.443,392.262z"/>
		<path d="M324.667,384.646v-1.422h1.25v1.422H324.667z M324.667,393.379v-7.358h1.25v7.358H324.667z"/>
		<path d="M329.828,393.379l-2.773-7.358h1.336l1.572,4.407c0.172,0.476,0.33,0.971,0.475,1.482
			c0.109-0.388,0.266-0.854,0.465-1.399l1.637-4.49h1.281l-2.781,7.358H329.828L329.828,393.379z"/>
		<path d="M339.947,390.989l1.285,0.172c-0.203,0.752-0.58,1.336-1.131,1.752c-0.549,0.416-1.25,0.623-2.104,0.623
			c-1.076,0-1.93-0.331-2.561-0.992s-0.945-1.588-0.945-2.781c0-1.235,0.318-2.193,0.957-2.875c0.637-0.683,1.463-1.023,2.479-1.023
			c0.982,0,1.787,0.334,2.41,1.003c0.623,0.668,0.936,1.609,0.936,2.821c0,0.074-0.002,0.185-0.008,0.332h-5.492
			c0.047,0.803,0.275,1.418,0.688,1.845c0.414,0.427,0.926,0.64,1.543,0.64c0.457,0,0.848-0.119,1.172-0.36
			S339.757,391.518,339.947,390.989z M335.835,388.989h4.125c-0.055-0.613-0.213-1.073-0.473-1.38
			c-0.398-0.477-0.916-0.714-1.551-0.714c-0.576,0-1.061,0.189-1.451,0.569C336.093,387.846,335.876,388.354,335.835,388.989z"/>
		<polygon points="346.951,393.379 346.951,383.224 354.279,383.224 354.279,384.427 348.294,384.427 348.294,387.521 
			353.904,387.521 353.904,388.724 348.294,388.724 348.294,392.177 354.513,392.177 354.513,393.379 "/>
		<path d="M356.212,393.379v-7.358h1.125v1.046c0.539-0.801,1.316-1.202,2.334-1.202c0.443,0,0.852,0.08,1.221,0.239
			c0.371,0.159,0.648,0.368,0.832,0.626c0.186,0.258,0.314,0.564,0.389,0.92c0.045,0.23,0.068,0.635,0.068,1.211v4.519h-1.25v-4.472
			c0-0.508-0.049-0.887-0.145-1.139c-0.098-0.252-0.27-0.452-0.516-0.603c-0.246-0.149-0.533-0.225-0.865-0.225
			c-0.527,0-0.984,0.168-1.369,0.505c-0.383,0.337-0.574,0.976-0.574,1.917v4.015L356.212,393.379L356.212,393.379z"/>
		<path d="M369.136,390.989l1.285,0.172c-0.203,0.752-0.58,1.336-1.129,1.752c-0.551,0.416-1.252,0.623-2.105,0.623
			c-1.076,0-1.93-0.331-2.561-0.992c-0.629-0.661-0.945-1.588-0.945-2.781c0-1.235,0.318-2.193,0.957-2.875
			c0.637-0.683,1.463-1.023,2.479-1.023c0.982,0,1.787,0.334,2.41,1.003c0.625,0.668,0.936,1.609,0.936,2.821
			c0,0.074-0.002,0.185-0.006,0.332h-5.494c0.047,0.803,0.275,1.418,0.689,1.845c0.412,0.427,0.926,0.64,1.541,0.64
			c0.459,0,0.85-0.119,1.174-0.36S368.947,391.518,369.136,390.989z M365.025,388.989h4.125c-0.057-0.613-0.213-1.073-0.473-1.38
			c-0.398-0.477-0.916-0.714-1.553-0.714c-0.574,0-1.059,0.189-1.449,0.569C365.283,387.846,365.066,388.354,365.025,388.989z"/>
		<path d="M371.98,393.379v-7.358h1.125v1.118c0.283-0.52,0.547-0.861,0.787-1.026c0.242-0.165,0.508-0.248,0.797-0.248
			c0.418,0,0.844,0.131,1.273,0.393l-0.439,1.149c-0.303-0.174-0.604-0.261-0.902-0.261c-0.27,0-0.51,0.082-0.727,0.246
			c-0.213,0.164-0.365,0.392-0.459,0.682c-0.139,0.443-0.207,0.928-0.207,1.455v3.852L371.98,393.379L371.98,393.379z"/>
		<path d="M376.488,393.974l1.219,0.172c0.051,0.376,0.193,0.65,0.424,0.823c0.313,0.231,0.734,0.349,1.271,0.349
			c0.58,0,1.025-0.115,1.342-0.345c0.314-0.23,0.527-0.553,0.639-0.967c0.064-0.253,0.096-0.784,0.09-1.595
			c-0.547,0.646-1.227,0.969-2.043,0.969c-1.016,0-1.801-0.363-2.355-1.093c-0.557-0.729-0.834-1.603-0.834-2.623
			c0-0.701,0.127-1.348,0.383-1.94c0.256-0.594,0.625-1.052,1.109-1.374c0.484-0.323,1.055-0.484,1.709-0.484
			c0.873,0,1.592,0.354,2.156,1.063v-0.906h1.125v6.351c0,1.145-0.115,1.954-0.35,2.433c-0.232,0.477-0.602,0.854-1.107,1.131
			c-0.506,0.275-1.129,0.415-1.865,0.415c-0.879,0-1.588-0.197-2.127-0.592C376.732,395.361,376.47,394.768,376.488,393.974z
			 M377.519,389.573c0,0.964,0.193,1.667,0.58,2.111c0.387,0.441,0.867,0.664,1.449,0.664c0.576,0,1.061-0.221,1.449-0.661
			s0.584-1.131,0.584-2.072c0-0.899-0.199-1.578-0.602-2.035s-0.887-0.685-1.453-0.685c-0.559,0-1.031,0.225-1.422,0.675
			S377.519,388.688,377.519,389.573z"/>
		<path d="M384.548,396.197l-0.141-1.163c0.271,0.074,0.512,0.111,0.715,0.111c0.277,0,0.498-0.046,0.666-0.14
			c0.166-0.092,0.303-0.222,0.408-0.388c0.078-0.125,0.205-0.434,0.381-0.928c0.023-0.069,0.061-0.171,0.111-0.305l-2.797-7.366
			h1.336l1.535,4.242c0.199,0.537,0.377,1.104,0.533,1.696c0.148-0.556,0.322-1.104,0.523-1.649l1.57-4.289h1.248l-2.795,7.483
			c-0.301,0.804-0.535,1.356-0.701,1.659c-0.223,0.409-0.477,0.708-0.764,0.899c-0.287,0.189-0.629,0.286-1.027,0.286
			C385.113,396.349,384.845,396.297,384.548,396.197z"/>
		<polygon points="398.126,393.379 398.126,384.427 394.783,384.427 394.783,383.224 402.814,383.224 402.814,384.427 
			399.468,384.427 399.468,393.379 "/>
		<path d="M407.519,390.989l1.285,0.172c-0.203,0.752-0.58,1.336-1.129,1.752c-0.551,0.416-1.252,0.623-2.105,0.623
			c-1.076,0-1.93-0.331-2.561-0.992c-0.629-0.661-0.943-1.588-0.943-2.781c0-1.235,0.316-2.193,0.955-2.875
			c0.637-0.683,1.465-1.023,2.479-1.023c0.984,0,1.787,0.334,2.41,1.003c0.625,0.668,0.936,1.609,0.936,2.821
			c0,0.074-0.002,0.185-0.006,0.332h-5.494c0.047,0.803,0.275,1.418,0.689,1.845c0.412,0.427,0.926,0.64,1.541,0.64
			c0.459,0,0.85-0.119,1.174-0.36S407.33,391.518,407.519,390.989z M403.408,388.989h4.125c-0.057-0.613-0.213-1.073-0.473-1.38
			c-0.398-0.477-0.916-0.714-1.553-0.714c-0.574,0-1.059,0.189-1.449,0.569C403.666,387.846,403.449,388.354,403.408,388.989z"/>
		<path d="M415.191,390.677l1.219,0.172c-0.135,0.841-0.479,1.499-1.029,1.975s-1.229,0.713-2.033,0.713
			c-1.006,0-1.814-0.328-2.428-0.984c-0.611-0.657-0.916-1.599-0.916-2.824c0-0.792,0.131-1.485,0.395-2.08
			c0.264-0.594,0.662-1.04,1.199-1.337s1.121-0.446,1.754-0.446c0.799,0,1.451,0.204,1.957,0.61c0.51,0.406,0.832,0.984,0.977,1.732
			l-1.219,0.172c-0.115-0.491-0.318-0.862-0.609-1.11c-0.293-0.249-0.646-0.373-1.061-0.373c-0.625,0-1.135,0.224-1.523,0.672
			c-0.393,0.448-0.588,1.157-0.588,2.126c0,0.983,0.189,1.697,0.57,2.143c0.379,0.446,0.873,0.668,1.482,0.668
			c0.49,0,0.9-0.148,1.23-0.447C414.896,391.757,415.103,391.297,415.191,390.677z"/>
		<path d="M417.472,393.379v-10.155h1.25v3.655c0.578-0.677,1.311-1.016,2.191-1.016c0.541,0,1.012,0.107,1.412,0.322
			c0.398,0.215,0.686,0.511,0.857,0.889c0.172,0.379,0.258,0.928,0.258,1.647v4.656h-1.25v-4.652c0-0.622-0.135-1.075-0.402-1.359
			s-0.646-0.425-1.137-0.425c-0.365,0-0.711,0.096-1.033,0.287c-0.322,0.19-0.553,0.451-0.689,0.777
			c-0.139,0.328-0.207,0.779-0.207,1.355v4.018H417.472L417.472,393.379z"/>
		<path d="M425.365,393.379v-7.358h1.125v1.046c0.539-0.801,1.316-1.202,2.334-1.202c0.441,0,0.85,0.08,1.221,0.239
			s0.648,0.368,0.832,0.626s0.314,0.564,0.387,0.92c0.047,0.23,0.07,0.635,0.07,1.211v4.519h-1.25v-4.472
			c0-0.508-0.049-0.887-0.145-1.139c-0.098-0.252-0.27-0.452-0.516-0.603c-0.246-0.149-0.535-0.225-0.865-0.225
			c-0.527,0-0.984,0.168-1.369,0.505c-0.383,0.337-0.574,0.976-0.574,1.917v4.015L425.365,393.379L425.365,393.379z"/>
		<path d="M432.787,389.7c0-1.359,0.379-2.366,1.137-3.021c0.631-0.543,1.402-0.815,2.313-0.815c1.012,0,1.838,0.331,2.479,0.992
			c0.643,0.661,0.963,1.574,0.963,2.74c0,0.943-0.143,1.688-0.426,2.229c-0.283,0.542-0.697,0.962-1.24,1.261
			c-0.541,0.3-1.135,0.449-1.773,0.449c-1.031,0-1.863-0.329-2.498-0.988C433.105,391.889,432.787,390.939,432.787,389.7z
			 M434.068,389.696c0,0.938,0.205,1.641,0.615,2.108c0.412,0.467,0.93,0.699,1.553,0.699c0.619,0,1.133-0.233,1.545-0.704
			c0.41-0.47,0.615-1.185,0.615-2.146c0-0.906-0.207-1.593-0.619-2.06c-0.414-0.468-0.928-0.7-1.541-0.7
			c-0.623,0-1.141,0.231-1.553,0.696C434.273,388.058,434.068,388.758,434.068,389.696z"/>
		<rect x="441.115" y="383.224" width="1.25" height="10.155"/> 
		<path d="M443.832,389.7c0-1.359,0.377-2.366,1.135-3.021c0.633-0.543,1.404-0.815,2.314-0.815c1.012,0,1.838,0.331,2.479,0.992
			s0.963,1.574,0.963,2.74c0,0.943-0.143,1.688-0.426,2.229c-0.285,0.541-0.697,0.962-1.24,1.261
			c-0.543,0.3-1.135,0.449-1.775,0.449c-1.029,0-1.861-0.329-2.496-0.988C444.15,391.889,443.832,390.939,443.832,389.7z
			 M445.113,389.696c0,0.938,0.205,1.641,0.615,2.108c0.41,0.467,0.928,0.699,1.551,0.699c0.619,0,1.135-0.233,1.545-0.704
			c0.41-0.469,0.617-1.185,0.617-2.146c0-0.906-0.207-1.593-0.621-2.06c-0.412-0.468-0.928-0.7-1.541-0.7
			c-0.623,0-1.141,0.231-1.551,0.696C445.318,388.058,445.113,388.758,445.113,389.696z"/>
		<path d="M451.958,393.974l1.219,0.172c0.053,0.376,0.193,0.65,0.424,0.823c0.313,0.231,0.734,0.349,1.271,0.349
			c0.58,0,1.027-0.115,1.342-0.345c0.314-0.23,0.527-0.553,0.641-0.967c0.063-0.253,0.094-0.784,0.09-1.595
			c-0.547,0.646-1.229,0.969-2.043,0.969c-1.018,0-1.803-0.363-2.357-1.093c-0.557-0.729-0.834-1.603-0.834-2.623
			c0-0.701,0.127-1.348,0.383-1.94c0.256-0.594,0.625-1.052,1.109-1.374c0.486-0.323,1.055-0.484,1.709-0.484
			c0.873,0,1.592,0.354,2.158,1.063v-0.906h1.125v6.351c0,1.145-0.117,1.954-0.352,2.433c-0.232,0.477-0.602,0.854-1.107,1.131
			c-0.504,0.275-1.127,0.415-1.865,0.415c-0.879,0-1.588-0.197-2.127-0.592C452.203,395.361,451.941,394.768,451.958,393.974z
			 M452.99,389.573c0,0.964,0.193,1.667,0.58,2.111c0.385,0.441,0.867,0.664,1.447,0.664c0.576,0,1.061-0.221,1.449-0.661
			c0.391-0.44,0.586-1.131,0.586-2.072c0-0.899-0.201-1.578-0.604-2.035c-0.4-0.457-0.885-0.685-1.451-0.685
			c-0.559,0-1.033,0.225-1.422,0.675S452.99,388.688,452.99,389.573z"/>
		<path d="M460.019,396.197l-0.141-1.163c0.273,0.074,0.512,0.111,0.715,0.111c0.277,0,0.498-0.046,0.666-0.14
			c0.166-0.092,0.303-0.222,0.408-0.388c0.078-0.125,0.205-0.434,0.381-0.928c0.023-0.069,0.063-0.171,0.111-0.305l-2.797-7.366
			h1.336l1.535,4.242c0.199,0.537,0.377,1.104,0.533,1.696c0.148-0.556,0.322-1.104,0.523-1.649l1.572-4.289h1.246l-2.793,7.483
			c-0.303,0.804-0.535,1.356-0.701,1.659c-0.225,0.409-0.479,0.708-0.766,0.899c-0.285,0.189-0.629,0.286-1.025,0.286
			C460.583,396.349,460.316,396.297,460.019,396.197z"/>
	</g>
</svg>
